HIERARCHY
ROOT Hips
{
	OFFSET -351.999878 -572.954773 89.312325
	CHANNELS 6 Xposition Yposition Zposition Zrotation Yrotation Xrotation
	JOINT Spine
	{
		OFFSET 0.000000 2.080078 8.814247
		CHANNELS 6 Xposition Yposition Zposition Zrotation Yrotation Xrotation
		JOINT Spine1
		{
			OFFSET 0.000000 0.000000 8.844139
			CHANNELS 6 Xposition Yposition Zposition Zrotation Yrotation Xrotation
			JOINT Spine2
			{
				OFFSET 0.000000 0.000000 11.682266
				CHANNELS 6 Xposition Yposition Zposition Zrotation Yrotation Xrotation
				JOINT Spine3
				{
					OFFSET 0.000000 0.000000 11.746696
					CHANNELS 6 Xposition Yposition Zposition Zrotation Yrotation Xrotation
					JOINT Neck
					{
						OFFSET 0.000000 0.000000 17.658264
						CHANNELS 6 Xposition Yposition Zposition Zrotation Yrotation Xrotation
						JOINT Neck1
						{
							OFFSET 0.000000 0.000000 5.101517
							CHANNELS 6 Xposition Yposition Zposition Zrotation Yrotation Xrotation
							JOINT Head
							{
								OFFSET 0.000000 0.000000 5.101517
								CHANNELS 6 Xposition Yposition Zposition Zrotation Yrotation Xrotation
								JOINT HeadEnd
								{
									OFFSET 0.000000 0.000000 11.655090
									CHANNELS 6 Xposition Yposition Zposition Zrotation Yrotation Xrotation
									End Site
									{
										OFFSET 0.000000 0.000000 0.100006
									}
								}
							}
						}
					}
					JOINT RightShoulder
					{
						OFFSET -2.625397 0.000000 11.175217
						CHANNELS 6 Xposition Yposition Zposition Zrotation Yrotation Xrotation
						JOINT RightArm
						{
							OFFSET 0.000000 0.000000 10.434708
							CHANNELS 6 Xposition Yposition Zposition Zrotation Yrotation Xrotation
							JOINT RightForeArm
							{
								OFFSET 0.000000 0.000000 29.628418
								CHANNELS 6 Xposition Yposition Zposition Zrotation Yrotation Xrotation
								JOINT RightHand
								{
									OFFSET 0.000000 0.000000 22.857605
									CHANNELS 6 Xposition Yposition Zposition Zrotation Yrotation Xrotation
									JOINT RightHandThumb1
									{
										OFFSET -2.867310 -2.944275 3.959564
										CHANNELS 6 Xposition Yposition Zposition Zrotation Yrotation Xrotation
										JOINT RightHandThumb2
										{
											OFFSET 0.000000 0.000000 3.350403
											CHANNELS 6 Xposition Yposition Zposition Zrotation Yrotation Xrotation
											JOINT RightHandThumb3
											{
												OFFSET 0.000000 0.000000 3.756516
												CHANNELS 6 Xposition Yposition Zposition Zrotation Yrotation Xrotation
												JOINT RightHandThumb4
												{
													OFFSET 0.000000 0.000000 3.147339
													CHANNELS 6 Xposition Yposition Zposition Zrotation Yrotation Xrotation
													End Site
													{
														OFFSET 0.000000 0.000000 0.100006
													}
												}
											}
										}
									}
									JOINT RightHandIndex1
									{
										OFFSET -0.086761 -2.345276 10.030899
										CHANNELS 6 Xposition Yposition Zposition Zrotation Yrotation Xrotation
										JOINT RightHandIndex2
										{
											OFFSET 0.000000 0.000000 4.061096
											CHANNELS 6 Xposition Yposition Zposition Zrotation Yrotation Xrotation
											JOINT RightHandIndex3
											{
												OFFSET 0.000000 0.000000 3.248871
												CHANNELS 6 Xposition Yposition Zposition Zrotation Yrotation Xrotation
												JOINT RightHandIndex4
												{
													OFFSET 0.000000 0.000000 2.639709
													CHANNELS 6 Xposition Yposition Zposition Zrotation Yrotation Xrotation
													End Site
													{
														OFFSET 0.000000 0.000000 0.100006
													}
												}
											}
										}
									}
									JOINT RightHandMiddle1
									{
										OFFSET 0.104095 -0.006775 9.502945
										CHANNELS 6 Xposition Yposition Zposition Zrotation Yrotation Xrotation
										JOINT RightHandMiddle2
										{
											OFFSET 0.000000 0.000000 4.568726
											CHANNELS 6 Xposition Yposition Zposition Zrotation Yrotation Xrotation
											JOINT RightHandMiddle3
											{
												OFFSET 0.000000 0.000000 3.654984
												CHANNELS 6 Xposition Yposition Zposition Zrotation Yrotation Xrotation
												JOINT RightHandMiddle4
												{
													OFFSET 0.000000 0.000000 2.741241
													CHANNELS 6 Xposition Yposition Zposition Zrotation Yrotation Xrotation
													End Site
													{
														OFFSET 0.000000 0.000000 0.100006
													}
												}
											}
										}
									}
									JOINT RightHandRing1
									{
										OFFSET 0.086761 2.267456 8.921707
										CHANNELS 6 Xposition Yposition Zposition Zrotation Yrotation Xrotation
										JOINT RightHandRing2
										{
											OFFSET 0.000000 0.000000 4.061096
											CHANNELS 6 Xposition Yposition Zposition Zrotation Yrotation Xrotation
											JOINT RightHandRing3
											{
												OFFSET 0.000000 0.000000 3.654984
												CHANNELS 6 Xposition Yposition Zposition Zrotation Yrotation Xrotation
												JOINT RightHandRing4
												{
													OFFSET 0.000000 0.000000 2.741241
													CHANNELS 6 Xposition Yposition Zposition Zrotation Yrotation Xrotation
													End Site
													{
														OFFSET 0.000000 0.000000 0.100006
													}
												}
											}
										}
									}
									JOINT RightHandPinky1
									{
										OFFSET -0.173492 4.467224 7.976990
										CHANNELS 6 Xposition Yposition Zposition Zrotation Yrotation Xrotation
										JOINT RightHandPinky2
										{
											OFFSET 0.000000 0.000000 3.350403
											CHANNELS 6 Xposition Yposition Zposition Zrotation Yrotation Xrotation
											JOINT RightHandPinky3
											{
												OFFSET 0.000000 0.000000 2.842758
												CHANNELS 6 Xposition Yposition Zposition Zrotation Yrotation Xrotation
												JOINT RightHandPinky4
												{
													OFFSET 0.000000 0.000000 2.639709
													CHANNELS 6 Xposition Yposition Zposition Zrotation Yrotation Xrotation
													End Site
													{
														OFFSET 0.000000 0.000000 0.100006
													}
												}
											}
										}
									}
									JOINT RightForeArmEnd
									{
										OFFSET 0.000000 0.000000 0.000000
										CHANNELS 6 Xposition Yposition Zposition Zrotation Yrotation Xrotation
										End Site
										{
											OFFSET 0.000000 0.000000 0.100006
										}
									}
								}
								JOINT RightArmEnd
								{
									OFFSET 0.000000 0.000000 0.000000
									CHANNELS 6 Xposition Yposition Zposition Zrotation Yrotation Xrotation
									End Site
									{
										OFFSET 0.000000 0.000000 0.100006
									}
								}
							}
						}
					}
					JOINT LeftShoulder
					{
						OFFSET 2.625397 0.000000 11.175217
						CHANNELS 6 Xposition Yposition Zposition Zrotation Yrotation Xrotation
						JOINT LeftArm
						{
							OFFSET 0.000000 0.000000 10.813629
							CHANNELS 6 Xposition Yposition Zposition Zrotation Yrotation Xrotation
							JOINT LeftForeArm
							{
								OFFSET 0.000000 0.000000 28.724777
								CHANNELS 6 Xposition Yposition Zposition Zrotation Yrotation Xrotation
								JOINT LeftHand
								{
									OFFSET 0.644379 0.328857 25.716171
									CHANNELS 6 Xposition Yposition Zposition Zrotation Yrotation Xrotation
									JOINT LeftHandThumb1
									{
										OFFSET 2.867310 -2.944275 3.959564
										CHANNELS 6 Xposition Yposition Zposition Zrotation Yrotation Xrotation
										JOINT LeftHandThumb2
										{
											OFFSET 0.000000 0.000000 3.350403
											CHANNELS 6 Xposition Yposition Zposition Zrotation Yrotation Xrotation
											JOINT LeftHandThumb3
											{
												OFFSET 0.000000 0.000000 3.756516
												CHANNELS 6 Xposition Yposition Zposition Zrotation Yrotation Xrotation
												JOINT LeftHandThumb4
												{
													OFFSET 0.000000 0.000000 3.100006
													CHANNELS 6 Xposition Yposition Zposition Zrotation Yrotation Xrotation
													End Site
													{
														OFFSET 0.000000 0.000000 0.100006
													}
												}
											}
										}
									}
									JOINT LeftHandIndex1
									{
										OFFSET 0.086761 -2.345276 10.030899
										CHANNELS 6 Xposition Yposition Zposition Zrotation Yrotation Xrotation
										JOINT LeftHandIndex2
										{
											OFFSET 0.000000 0.000000 4.061096
											CHANNELS 6 Xposition Yposition Zposition Zrotation Yrotation Xrotation
											JOINT LeftHandIndex3
											{
												OFFSET 0.000000 0.000000 3.248871
												CHANNELS 6 Xposition Yposition Zposition Zrotation Yrotation Xrotation
												JOINT LeftHandIndex4
												{
													OFFSET 0.000000 0.000000 2.639709
													CHANNELS 6 Xposition Yposition Zposition Zrotation Yrotation Xrotation
													End Site
													{
														OFFSET 0.000000 0.000000 0.100006
													}
												}
											}
										}
									}
									JOINT LeftHandMiddle1
									{
										OFFSET -0.104095 -0.006775 9.502945
										CHANNELS 6 Xposition Yposition Zposition Zrotation Yrotation Xrotation
										JOINT LeftHandMiddle2
										{
											OFFSET 0.000000 0.000000 4.568726
											CHANNELS 6 Xposition Yposition Zposition Zrotation Yrotation Xrotation
											JOINT LeftHandMiddle3
											{
												OFFSET 0.000000 0.000000 3.654984
												CHANNELS 6 Xposition Yposition Zposition Zrotation Yrotation Xrotation
												JOINT LeftHandMiddle4
												{
													OFFSET 0.000000 0.000000 2.741241
													CHANNELS 6 Xposition Yposition Zposition Zrotation Yrotation Xrotation
													End Site
													{
														OFFSET 0.000000 0.000000 0.100006
													}
												}
											}
										}
									}
									JOINT LeftHandRing1
									{
										OFFSET -0.086761 2.267456 8.921707
										CHANNELS 6 Xposition Yposition Zposition Zrotation Yrotation Xrotation
										JOINT LeftHandRing2
										{
											OFFSET 0.000000 0.000000 4.061096
											CHANNELS 6 Xposition Yposition Zposition Zrotation Yrotation Xrotation
											JOINT LeftHandRing3
											{
												OFFSET 0.000000 0.000000 3.654984
												CHANNELS 6 Xposition Yposition Zposition Zrotation Yrotation Xrotation
												JOINT LeftHandRing4
												{
													OFFSET 0.000000 0.000000 2.741241
													CHANNELS 6 Xposition Yposition Zposition Zrotation Yrotation Xrotation
													End Site
													{
														OFFSET 0.000000 0.000000 0.100006
													}
												}
											}
										}
									}
									JOINT LeftHandPinky1
									{
										OFFSET 0.173492 4.467224 7.976990
										CHANNELS 6 Xposition Yposition Zposition Zrotation Yrotation Xrotation
										JOINT LeftHandPinky2
										{
											OFFSET 0.000000 0.000000 3.350403
											CHANNELS 6 Xposition Yposition Zposition Zrotation Yrotation Xrotation
											JOINT LeftHandPinky3
											{
												OFFSET 0.000000 0.000000 2.842758
												CHANNELS 6 Xposition Yposition Zposition Zrotation Yrotation Xrotation
												JOINT LeftHandPinky4
												{
													OFFSET 0.000000 0.000000 2.639709
													CHANNELS 6 Xposition Yposition Zposition Zrotation Yrotation Xrotation
													End Site
													{
														OFFSET 0.000000 0.000000 0.100006
													}
												}
											}
										}
									}
									JOINT LeftForeArmEnd
									{
										OFFSET 0.000000 0.000000 0.000000
										CHANNELS 6 Xposition Yposition Zposition Zrotation Yrotation Xrotation
										End Site
										{
											OFFSET 0.000000 0.000000 0.100006
										}
									}
								}
								JOINT LeftArmEnd
								{
									OFFSET 0.000000 0.000000 0.000000
									CHANNELS 6 Xposition Yposition Zposition Zrotation Yrotation Xrotation
									End Site
									{
										OFFSET 0.000000 0.000000 0.100006
									}
								}
							}
						}
					}
				}
			}
		}
	}
	JOINT RightUpLeg
	{
		OFFSET -11.289948 0.000000 0.000000
		CHANNELS 6 Xposition Yposition Zposition Zrotation Yrotation Xrotation
		JOINT RightLeg
		{
			OFFSET 0.000000 0.000000 -38.200329
			CHANNELS 6 Xposition Yposition Zposition Zrotation Yrotation Xrotation
			JOINT RightFoot
			{
				OFFSET 0.000000 0.000000 -39.900856
				CHANNELS 6 Xposition Yposition Zposition Zrotation Yrotation Xrotation
				JOINT RightToeBase
				{
					OFFSET 0.000000 -15.261658 0.000002
					CHANNELS 6 Xposition Yposition Zposition Zrotation Yrotation Xrotation
					JOINT RightToeBaseEnd
					{
						OFFSET 0.000000 -7.370728 0.000000
						CHANNELS 6 Xposition Yposition Zposition Zrotation Yrotation Xrotation
						End Site
						{
							OFFSET 0.000000 0.000000 0.100000
						}
					}
				}
				JOINT RightLegEnd
				{
					OFFSET 0.000000 0.000000 0.000000
					CHANNELS 6 Xposition Yposition Zposition Zrotation Yrotation Xrotation
					End Site
					{
						OFFSET 0.000000 0.000000 0.100000
					}
				}
			}
			JOINT RightUpLegEnd
			{
				OFFSET 0.000000 0.000000 0.000000
				CHANNELS 6 Xposition Yposition Zposition Zrotation Yrotation Xrotation
				End Site
				{
					OFFSET 0.000000 0.000000 0.099998
				}
			}
		}
	}
	JOINT LeftUpLeg
	{
		OFFSET 11.315674 0.000000 0.000000
		CHANNELS 6 Xposition Yposition Zposition Zrotation Yrotation Xrotation
		JOINT LeftLeg
		{
			OFFSET 0.000000 0.000000 -38.200329
			CHANNELS 6 Xposition Yposition Zposition Zrotation Yrotation Xrotation
			JOINT LeftFoot
			{
				OFFSET 0.000000 0.000000 -39.900856
				CHANNELS 6 Xposition Yposition Zposition Zrotation Yrotation Xrotation
				JOINT LeftToeBase
				{
					OFFSET 0.000000 -15.261658 0.000002
					CHANNELS 6 Xposition Yposition Zposition Zrotation Yrotation Xrotation
					JOINT LeftToeBaseEnd
					{
						OFFSET 0.000000 -7.539978 0.000000
						CHANNELS 6 Xposition Yposition Zposition Zrotation Yrotation Xrotation
						End Site
						{
							OFFSET 0.000000 0.000000 0.100000
						}
					}
				}
				JOINT LeftLegEnd
				{
					OFFSET 0.000000 0.000000 0.000000
					CHANNELS 6 Xposition Yposition Zposition Zrotation Yrotation Xrotation
					End Site
					{
						OFFSET 0.000000 0.000000 0.100000
					}
				}
			}
			JOINT LeftUpLegEnd
			{
				OFFSET 0.000000 0.000000 0.000000
				CHANNELS 6 Xposition Yposition Zposition Zrotation Yrotation Xrotation
				End Site
				{
					OFFSET 0.000000 0.000000 0.099998
				}
			}
		}
	}
}
MOTION
Frames: 2
Frame Time: 0.016667
-2.668976 4.847473 86.263229 -4.588541 -5.817051 7.840299 -0.000011 2.080101 8.814255 -0.191554 -7.128234 13.165190 -0.000015 -0.000003 8.844137 -0.584225 -2.208839 7.780716 0.000004 -0.000004 11.682285 -2.448017 0.666902 7.907142 0.000002 0.000018 11.746689 -0.360003 2.858756 3.685594 0.000004 0.000008 17.658257 2.228072 -6.905171 -14.389810 0.000005 -0.000034 5.101511 6.703306 -0.702292 -12.747101 -0.000002 0.000018 5.101522 -2.286294 4.486107 -11.487734 0.000001 0.000002 11.655066 -0.000000 0.000001 0.000000 -2.625374 0.000006 11.175207 16.063755 -70.989298 0.490826 0.000004 -0.000011 10.434738 9.419281 -17.947229 37.939904 -0.000019 0.000000 29.628422 16.518763 1.238615 109.060205 0.000004 0.000137 22.857599 6.198277 2.769804 12.588649 -2.867331 -2.944260 3.959534 32.792022 -27.372133 37.391471 0.000000 -0.000107 3.350426 -34.922839 10.052936 -58.756839 -0.000008 -0.000023 3.756462 -23.319121 10.947659 -40.180801 0.000011 -0.000008 3.147357 0.000001 -0.000000 -0.000000 -0.086763 -2.345279 10.030867 -110.167960 -70.325096 108.150370 -0.000015 0.000017 4.061096 -11.680395 -66.207428 18.587974 -0.000008 0.000023 3.248894 -12.180452 -66.207462 18.588044 -0.000014 0.000003 2.639714 -0.000001 0.000003 -0.000000 0.104097 -0.006788 9.502918 -106.014160 -75.966600 107.931469 -0.000023 0.000018 4.568747 -3.780416 -65.607382 6.626830 0.000002 -0.000005 3.655016 -4.280415 -65.607403 6.628241 -0.000008 -0.000012 2.741223 0.000002 -0.000002 0.000001 0.086735 2.267473 8.921696 -147.182913 -79.950171 153.302626 -0.000025 0.000029 4.061077 4.985718 -68.257495 -8.816259 0.000004 -0.000089 3.655010 5.985756 -68.257468 -8.817043 -0.000010 0.000003 2.741248 -0.000000 -0.000000 -0.000001 -0.173477 4.467226 7.977001 163.579643 -79.887395 -152.980924 -0.000015 -0.000004 3.350410 14.420684 -65.522674 -25.275791 -0.000015 0.000000 2.842743 16.420678 -65.522633 -25.275788 0.000012 0.000004 2.639704 -0.000000 0.000002 0.000000 -0.000012 -0.000006 -0.000020 0.000001 -0.000001 0.000001 -0.000000 0.000016 -0.000013 -0.000003 0.000000 -0.000002 2.625381 0.000032 11.175220 -18.227323 83.626323 -0.169718 -0.000015 -0.000024 10.813622 63.219883 40.014209 51.567839 -0.000060 -0.000019 28.724720 -6.135315 0.524775 36.199514 0.644339 0.328865 25.716156 23.831213 1.893963 -21.912459 2.867245 -2.944336 3.959564 -32.323840 25.818646 39.469358 -0.000015 -0.000015 3.350441 31.628591 -10.694666 -53.447473 -0.000038 -0.000015 3.756516 20.999444 -10.680958 -36.468446 -0.000036 0.000003 3.100017 -0.000001 0.000002 0.000000 0.086761 -2.345262 10.030941 -172.880107 101.436915 -179.844864 0.000000 0.000004 4.061157 -5.564837 55.062571 -11.605974 -0.000008 -0.000029 3.248901 -6.065480 55.062523 -11.606529 -0.000016 0.000000 2.639696 -0.000000 -0.000000 -0.000000 -0.104124 -0.006780 9.502964 28.010657 76.502920 25.502181 0.000002 -0.000064 4.568716 -1.707012 54.716174 -4.257875 -0.000016 -0.000065 3.655033 -2.205041 54.716102 -4.256231 -0.000035 0.000001 2.741261 -0.000000 0.000000 -0.000003 -0.086763 2.267464 8.921791 69.620241 74.562525 73.395348 -0.000032 -0.000014 4.061123 2.363110 59.277675 5.910156 -0.000044 0.000021 3.655046 3.363139 59.277600 5.910231 -0.000030 -0.000004 2.741241 0.000001 -0.000003 -0.000001 0.173500 4.467209 7.976982 72.564217 66.275457 85.884028 -0.000008 -0.000002 3.350418 8.324652 58.351795 18.382933 -0.000031 0.000008 2.842773 10.324643 58.351802 18.382915 -0.000034 0.000061 2.639708 -0.000000 0.000001 -0.000001 -0.000015 0.000031 0.000005 0.000000 0.000001 0.000002 -0.000012 -0.000005 -0.000008 0.000001 0.000001 -0.000002 -11.289909 0.000038 -0.000004 -11.971588 3.201992 -31.785911 0.000028 0.000029 -38.200279 -0.641768 0.389356 31.371684 -0.000012 -0.000078 -39.900864 -7.255832 6.840878 12.753728 0.000002 -15.261728 0.000019 2.046776 0.245078 -10.540666 0.000002 -7.370661 0.000001 -0.000001 -0.000000 -0.000001 0.000005 -0.000013 -0.000001 0.000002 -0.000001 -0.000002 0.000034 0.000012 0.000003 -0.000002 -0.000000 0.000000 11.315664 -0.000032 -0.000008 -4.484949 -10.774105 -3.423010 -0.000011 0.000080 -38.200294 0.862213 -0.460064 28.080863 0.000002 0.000025 -39.900841 -0.200544 8.079701 14.548750 0.000018 -15.261640 0.000009 -2.234094 0.102221 -20.292827 0.000002 -7.539979 0.000002 0.000000 -0.000000 0.000000 0.000009 0.000003 -0.000000 -0.000000 0.000001 -0.000003 -0.000022 0.000002 0.000003 -0.000001 -0.000001 0.000002 
-3.320221 4.380371 86.527138 -4.192993 -6.515763 7.598054 0.000004 2.080076 8.814236 -0.170581 -7.048176 13.539674 0.000029 0.000027 8.844153 -0.510679 -2.187759 7.755959 -0.000014 -0.000008 11.682272 -1.849112 0.844566 7.816658 -0.000008 -0.000003 11.746691 -0.130780 3.142844 3.695812 -0.000015 0.000024 17.658253 1.698445 -8.083622 -14.039110 0.000010 0.000023 5.101533 6.272833 -0.642336 -12.633736 -0.000010 0.000018 5.101492 -2.382154 4.575658 -11.524635 -0.000002 -0.000002 11.655084 0.000000 0.000001 -0.000000 -2.625366 0.000011 11.175205 15.538419 -69.514578 0.452984 0.000034 0.000031 10.434685 11.386045 -16.172698 37.526125 0.000000 -0.000053 29.628447 16.876453 1.215431 110.917402 -0.000017 0.000061 22.857601 4.615061 2.430235 11.601287 -2.867324 -2.944336 3.959579 32.792008 -27.372147 37.391454 0.000000 -0.000015 3.350372 -34.922836 10.052892 -58.756873 -0.000008 -0.000015 3.756485 -23.319068 10.947678 -40.180773 -0.000002 -0.000086 3.147344 -0.000003 0.000001 -0.000000 -0.086769 -2.345327 10.030863 -109.834332 -70.362539 108.584148 -0.000027 -0.000017 4.061089 -11.677135 -66.203179 18.584409 0.000023 0.000006 3.248871 -12.178559 -66.203043 18.585447 -0.000008 0.000082 2.639721 -0.000003 -0.000000 0.000000 0.104094 -0.006838 9.502931 -105.389669 -76.008783 107.992223 0.000006 0.000001 4.568691 -3.771073 -65.526649 6.615264 0.000000 0.000010 3.654999 -4.273265 -65.526219 6.618492 0.000031 -0.000002 2.741223 -0.000000 0.000000 0.000000 0.086754 2.267387 8.921688 -145.767671 -80.296045 152.308451 -0.000019 0.000025 4.061104 4.856765 -67.945103 -8.682922 0.000006 0.000001 3.654980 5.856789 -67.945089 -8.682936 -0.000006 0.000005 2.741246 -0.000000 0.000002 -0.000001 -0.173492 4.467249 7.977016 162.447020 -80.634816 -151.488104 -0.000008 0.000008 3.350410 13.841947 -65.002248 -24.638572 0.000000 -0.000027 2.842735 15.841917 -65.002261 -24.638548 -0.000003 -0.000013 2.639715 0.000001 -0.000002 0.000001 -0.000010 -0.000045 0.000013 -0.000003 0.000002 -0.000000 0.000043 0.000008 -0.000007 -0.000001 0.000000 -0.000001 2.625389 0.000019 11.175179 -17.991295 83.260464 -0.138087 -0.000008 -0.000066 10.813629 66.462932 38.903204 50.599483 -0.000023 -0.000069 28.724758 -7.200199 0.563197 37.534061 0.644341 0.328835 25.716148 22.256144 1.268448 -21.650337 2.867248 -2.944351 3.959549 -32.323836 25.818632 39.469361 0.000000 0.000000 3.350471 31.628745 -10.696048 -53.448327 -0.000069 -0.000008 3.756470 20.999459 -10.680964 -36.468470 -0.000034 -0.000050 3.100012 -0.000001 -0.000001 -0.000001 0.086723 -2.345259 10.030925 -172.799346 101.341941 -179.620984 -0.000015 0.000006 4.061119 -5.582858 55.112711 -11.627951 -0.000023 0.000008 3.248940 -6.082887 55.112745 -11.627986 0.000001 -0.000015 2.639730 0.000001 -0.000001 0.000000 -0.104094 -0.006746 9.502964 28.366542 76.650418 26.077268 0.000015 -0.000149 4.568790 -1.715496 54.824112 -4.269243 0.000022 -0.000082 3.655001 -2.212331 54.824204 -4.267150 -0.000030 0.000003 2.741272 -0.000000 0.000001 0.000002 -0.086756 2.267443 8.921741 70.517564 74.654521 74.434514 -0.000004 0.000091 4.061182 2.401042 59.464050 5.951354 -0.000002 0.000000 3.655003 3.401088 59.464016 5.951405 -0.000019 -0.000005 2.741237 -0.000000 -0.000003 -0.000002 0.173512 4.467186 7.976992 73.513722 66.378565 86.571698 -0.000031 -0.000017 3.350449 8.468301 58.576911 18.551451 -0.000031 0.000019 2.842819 10.468242 58.576693 18.551378 -0.000033 -0.000005 2.639687 0.000001 -0.000002 -0.000003 -0.000020 0.000016 -0.000028 -0.000000 0.000001 0.000000 -0.000002 -0.000001 0.000008 -0.000000 0.000001 0.000001 -11.289910 0.000050 0.000011 -12.050799 3.611388 -30.964543 0.000041 0.000094 -38.200321 -0.641885 0.386080 31.024468 -0.000027 -0.000076 -39.900887 -7.642152 7.067479 12.449678 -0.000009 -15.261765 0.000013 2.039541 0.273272 -10.521147 -0.000007 -7.370665 -0.000002 -0.000000 0.000000 0.000001 -0.000009 0.000002 0.000000 -0.000000 -0.000000 0.000000 0.000018 0.000024 -0.000001 -0.000004 -0.000000 0.000000 11.315670 -0.000063 -0.000008 -2.931063 -11.060365 -4.183694 -0.000007 0.000050 -38.200317 0.887497 -0.557104 32.115232 -0.000036 -0.000024 -39.900848 0.889555 7.957930 15.731247 0.000038 -15.261648 0.000012 -2.316671 0.158394 -21.159269 -0.000035 -7.539981 -0.000000 0.000000 0.000000 0.000001 -0.000002 0.000064 0.000000 -0.000000 0.000002 0.000002 -0.000010 0.000061 0.000002 -0.000000 0.000001 0.000001 
